<!-- public/assets/wave.svg -->
<svg xmlns="http://www.w3.org/2000/svg" viewBox="0 0 1440 320">
  <defs>
    <linearGradient id="grad" x1="0%" y1="0%" x2="100%" y2="0%">
      <stop offset="0%" stop-color="#0f172a"/>
      <stop offset="50%" stop-color="#1e293b"/>
      <stop offset="100%" stop-color="#0ea5e9"/>
    </linearGradient>
  </defs>
  <path fill="url(#grad)" fill-opacity="0.3"
    d="M0,128L48,133.3C96,139,192,149,288,160C384,171,480,181,576,165.3C672,149,768,107,864,112C960,117,1056,171,1152,181.3C1248,192,1344,160,1392,144L1440,128L1440,0L1392,0C1344,0,1248,0,1152,0C1056,0,960,0,864,0C768,0,672,0,576,0C480,0,384,0,288,0C192,0,96,0,48,0L0,0Z"/>
</svg>
